<svg width="194" height="68" viewBox="0 0 194 68" fill="none" xmlns="http://www.w3.org/2000/svg">
<g opacity="0.2">
<path d="M80.0787 49.4881C80.4185 49.4881 80.7584 49.3834 81.0642 49.3135V51.7582C80.4525 52.0027 79.7048 52.1424 78.9572 52.1424C77.5978 52.1424 76.5104 51.5836 75.9666 50.3612C74.5053 51.5836 72.6702 52.3519 70.3253 52.3519C67.6065 52.3519 65.0917 50.8153 65.0917 47.6371C65.0917 43.6907 68.6261 42.5032 71.7526 42.5032C73.044 42.5032 74.4713 42.6778 75.6268 42.9572V42.3985C75.6268 40.4776 74.2674 39.1505 71.7186 39.1505C69.5097 39.1505 67.6745 39.7093 66.3491 40.3379V37.1947C67.5386 36.7756 69.6796 36.1819 72.0585 36.1819C76.2725 36.1819 78.9572 38.2424 78.9572 42.8874V48.3705C78.9912 49.2087 79.467 49.4881 80.0787 49.4881ZM68.5241 47.3927C68.5241 48.8944 69.8155 49.6628 71.3108 49.6628C72.908 49.6628 74.4373 49.069 75.6268 47.8467V45.2623C74.7092 45.0876 73.4518 44.8781 72.3983 44.8781C70.5292 44.8781 68.5241 45.4718 68.5241 47.3927Z" fill="black"/>
<path d="M90.6818 36.1469C92.347 36.1469 93.9782 36.531 95.2696 37.3343V40.4775C94.1821 39.6742 92.6528 39.1853 91.1236 39.1853C88.4728 39.1853 85.822 40.6172 85.822 44.2493C85.822 47.7418 88.4048 49.3134 91.0896 49.3134C92.6868 49.3134 94.2501 48.8245 95.4395 48.126V51.3041C94.0122 52.0026 92.381 52.3518 90.5118 52.3518C86.5357 52.3518 82.4576 49.8722 82.4576 44.389C82.4236 38.6265 86.7056 36.1469 90.6818 36.1469Z" fill="black"/>
<path d="M112.465 49.4881C112.805 49.4881 113.145 49.3834 113.451 49.3135V51.7582C112.839 52.0027 112.092 52.1424 111.344 52.1424C109.985 52.1424 108.897 51.5836 108.353 50.3612C106.892 51.5836 105.057 52.3519 102.712 52.3519C99.9932 52.3519 97.4784 50.8153 97.4784 47.6371C97.4784 43.6907 101.013 42.5032 104.139 42.5032C105.431 42.5032 106.858 42.6778 108.013 42.9572V42.3985C108.013 40.4776 106.654 39.1505 104.105 39.1505C101.896 39.1505 100.061 39.7093 98.7358 40.3379V37.1947C99.9253 36.7756 102.066 36.1819 104.445 36.1819C108.659 36.1819 111.344 38.2424 111.344 42.8874V48.3705C111.378 49.2087 111.888 49.4881 112.465 49.4881ZM100.945 47.3927C100.945 48.8944 102.236 49.6628 103.731 49.6628C105.329 49.6628 106.858 49.069 108.047 47.8467V45.2623C107.13 45.0876 105.872 44.8781 104.819 44.8781C102.916 44.8781 100.945 45.4718 100.945 47.3927Z" fill="black"/>
<path d="M130.953 29.5112V51.8979H127.962V49.4531C126.807 50.9549 125.04 52.282 122.253 52.282C117.733 52.282 114.844 48.615 114.844 44.1795C114.844 39.779 117.733 36.077 122.253 36.077C124.87 36.077 126.603 37.2645 127.622 38.4868V29.5112H130.953ZM122.831 39.1504C120.146 39.1504 118.209 41.2109 118.209 44.2494C118.209 47.2529 120.18 49.3134 122.831 49.3134C125.176 49.3134 126.875 47.7768 127.588 46.1004V42.3635C126.875 40.6871 125.176 39.1504 122.831 39.1504Z" fill="black"/>
<path d="M141.726 36.1469C147.673 36.1469 149.712 41.0712 148.76 45.5066H137.546C137.919 48.2657 140.536 49.4182 143.255 49.4182C145.056 49.4182 146.721 48.9642 147.979 48.3355V51.2692C146.619 51.9327 144.716 52.3169 142.643 52.3169C138.055 52.3169 134.181 49.6277 134.181 44.2144C134.181 38.6614 138.293 36.1469 141.726 36.1469ZM141.895 38.9757C139.653 38.9757 137.647 40.3378 137.512 42.9222H145.77C145.974 41.5951 145.158 38.9757 141.895 38.9757Z" fill="black"/>
<path d="M152.159 51.8978V36.5659H155.115V38.4868C155.931 37.5438 157.664 36.1469 160.077 36.1469C162.32 36.1469 163.883 37.0898 164.733 38.5916C166.024 37.2644 167.791 36.1469 169.966 36.1469C173.909 36.1469 175.642 39.1504 175.642 42.3285V51.9327H172.311V42.4333C172.311 40.4426 171.156 39.2202 169.355 39.2202C167.723 39.2202 166.432 40.3378 165.65 41.2808C165.684 41.63 165.718 41.9792 165.718 42.3285V51.9327H162.388V42.4333C162.388 40.4426 161.233 39.2202 159.431 39.2202C157.63 39.2202 156.271 40.5473 155.489 41.5951V51.9327H152.159V51.8978Z" fill="black"/>
<path d="M190.323 36.5659H193.789L186.788 53.9933C185.157 57.9747 183.05 59.3367 180.773 59.3367C180.128 59.3367 179.482 59.2319 178.802 59.0922V56.1935C179.312 56.3681 179.822 56.4031 180.331 56.4031C181.963 56.4031 183.152 55.2156 184.036 52.8408L184.342 52.0724L177.239 36.6008H180.773L185.803 48.1609L190.323 36.5659Z" fill="black"/>
<path d="M69.5095 2.6543V11.3854C70.597 10.2329 72.2962 9.28996 74.3352 9.28996C78.1075 9.28996 80.4863 11.9093 80.4863 15.5415V25.0409H77.1559V15.9955C77.1559 13.5158 75.6606 12.3284 73.6895 12.3284C71.7864 12.3284 70.3591 13.6555 69.5095 14.8779V25.0409H66.1791V2.6543H69.5095Z" fill="black"/>
<path d="M89.5939 4.22595V9.67418H94.9974V12.6777H89.5939V19.6975C89.5939 21.7231 90.5115 22.3867 92.4146 22.3867C93.5021 22.3867 94.4876 22.1772 95.4391 21.793V24.7267C94.3177 25.1458 92.8903 25.3902 91.429 25.3902C88.5404 25.3902 86.2975 23.9234 86.2975 20.3262V12.6428H83.6127V9.63926H86.2975V5.06414L89.5939 4.22595Z" fill="black"/>
<path d="M99.2795 25.0409V9.70901H102.236V11.6299C103.052 10.6869 104.785 9.28992 107.198 9.28992C109.441 9.28992 111.004 10.2329 111.854 11.7346C113.145 10.4075 114.912 9.28992 117.087 9.28992C121.029 9.28992 122.762 12.2934 122.762 15.4716V25.0758H119.432V15.5414C119.432 13.5507 118.277 12.3284 116.475 12.3284C114.844 12.3284 113.553 13.4459 112.771 14.3889C112.805 14.7381 112.839 15.0874 112.839 15.4366V25.0409H109.509V15.5414C109.509 13.5507 108.353 12.3284 106.552 12.3284C104.751 12.3284 103.392 13.6555 102.61 14.7032V25.0409H99.2795Z" fill="black"/>
<path d="M130.952 2.6543H127.622V25.0409H130.952V2.6543Z" fill="black"/>
<path d="M26.4858 0.0349245L26.2139 0L0.14817 2.79396V51.8979L26.2139 67.8234L52.2796 51.8979V2.79396L26.4858 0.0349245ZM48.8812 49.9072L26.2139 63.7722L3.54657 49.9072V29.7906L26.1119 43.5858L26.1459 46.1004L10.6832 36.6358L10.6492 39.0806L26.1799 48.6848L26.2139 51.2343L10.6832 41.6999L10.6492 44.1446L26.1799 53.7489L41.8805 44.1097V41.665H41.8465V40.8268V39.814V33.7371L48.8472 29.4414V49.9072H48.8812ZM48.8472 26.822L42.6621 30.559L39.8075 32.3052L26.1459 23.9932L26.1119 26.4379L37.7684 33.5276L37.6665 33.5974L37.4286 33.7371L35.7634 34.7499L26.1459 28.8826L26.1119 31.3273L33.7244 35.9723L31.9232 37.1946L31.8892 37.2296L26.1459 33.7371L26.1119 36.1818L29.8842 38.4519L26.044 40.8268L3.61454 27.1014L26.078 13.2015L48.8472 26.822ZM48.8812 24.4123L26.1119 10.6171L3.54657 24.3773V5.9721L26.2139 3.52738L48.8812 5.9721V24.4123Z" fill="black"/>
</g>
</svg>
